<mxfile host="app.diagrams.net" agent="Mozilla/5.0 (Macintosh; Intel Mac OS X 10_15_7) AppleWebKit/537.36 (KHTML, like Gecko) Chrome/138.0.0.0 Safari/537.36 Edg/138.0.0.0" version="28.0.4">
  <diagram name="Page-1" id="kt9wOJSnaYlHhMPPOjTL">
    <mxGraphModel dx="1010" dy="693" grid="1" gridSize="10" guides="1" tooltips="1" connect="1" arrows="1" fold="1" page="1" pageScale="1" pageWidth="850" pageHeight="1100" math="0" shadow="0">
      <root>
        <mxCell id="0" />
        <mxCell id="1" parent="0" />
        <mxCell id="HVFixg9VzNJbL1LoGBnK-1" value="" style="whiteSpace=wrap;html=1;" parent="1" vertex="1">
          <mxGeometry x="530" y="20" width="80" height="140" as="geometry" />
        </mxCell>
        <mxCell id="HVFixg9VzNJbL1LoGBnK-2" value="" style="points=[];aspect=fixed;html=1;align=center;shadow=0;dashed=0;fillColor=#FF6A00;strokeColor=none;shape=mxgraph.alibaba_cloud.iot_internet_of_things_platform;" parent="1" vertex="1">
          <mxGeometry x="555" y="30" width="26.4" height="25.98" as="geometry" />
        </mxCell>
        <mxCell id="HVFixg9VzNJbL1LoGBnK-3" value="&lt;font style=&quot;font-size: 10px;&quot;&gt;MQTT&lt;br&gt;Broker&lt;/font&gt;" style="sketch=0;outlineConnect=0;fontColor=#232F3E;gradientColor=none;strokeColor=#232F3E;fillColor=#ffffff;dashed=0;verticalLabelPosition=bottom;verticalAlign=top;align=center;html=1;fontSize=12;fontStyle=0;aspect=fixed;shape=mxgraph.aws4.resourceIcon;resIcon=mxgraph.aws4.mqtt_protocol;" parent="1" vertex="1">
          <mxGeometry x="555" y="90" width="30" height="30" as="geometry" />
        </mxCell>
        <mxCell id="HVFixg9VzNJbL1LoGBnK-6" value="" style="orthogonalLoop=1;jettySize=auto;html=1;rounded=0;" parent="1" edge="1">
          <mxGeometry width="100" relative="1" as="geometry">
            <mxPoint x="567.7" y="55.97999999999999" as="sourcePoint" />
            <mxPoint x="567.7" y="95.97999999999999" as="targetPoint" />
          </mxGeometry>
        </mxCell>
        <mxCell id="HVFixg9VzNJbL1LoGBnK-8" value="" style="whiteSpace=wrap;html=1;aspect=fixed;" parent="1" vertex="1">
          <mxGeometry x="20" y="10" width="500" height="500" as="geometry" />
        </mxCell>
        <mxCell id="HVFixg9VzNJbL1LoGBnK-7" value="" style="edgeStyle=none;orthogonalLoop=1;jettySize=auto;html=1;rounded=0;" parent="1" edge="1">
          <mxGeometry width="100" relative="1" as="geometry">
            <mxPoint x="530" y="121" as="sourcePoint" />
            <mxPoint x="290" y="120" as="targetPoint" />
            <Array as="points" />
          </mxGeometry>
        </mxCell>
        <mxCell id="HVFixg9VzNJbL1LoGBnK-10" value="" style="rounded=1;whiteSpace=wrap;html=1;" parent="1" vertex="1">
          <mxGeometry x="192.88" y="20" width="70" height="230" as="geometry" />
        </mxCell>
        <mxCell id="HVFixg9VzNJbL1LoGBnK-9" value="" style="shape=image;verticalLabelPosition=bottom;labelBackgroundColor=default;verticalAlign=top;aspect=fixed;imageAspect=0;image=data:image/png,iVBORw0KGgoAAAANSUhEUgAAAD4AAAA0CAYAAADSWosiAAAAAXNSR0IArs4c6QAAAIRlWElmTU0AKgAAAAgABQESAAMAAAABAAEAAAEaAAUAAAABAAAASgEbAAUAAAABAAAAUgEoAAMAAAABAAIAAIdpAAQAAAABAAAAWgAAAAAAAACQAAAAAQAAAJAAAAABAAOgAQADAAAAAQABAACgAgAEAAAAAQAAAD6gAwAEAAAAAQAAADQAAAAAfavTzwAAAAlwSFlzAAAWJQAAFiUBSVIk8AAACVNJREFUaAXtmmdsVWUYx/9lCRVURgEBoUxBBGSICA5cCA40aoLgStQ4oqiJcQRH+KAYjRr1g4nGOOKewREgGgfiBESWypApVmhBoSogtODz69PXc3q5tz33YsuH9kluz3rPs95nn0r1FPKQ++Hz9u6tb/I3qm8CB3kbBA+aqC/Hhh2vLzsd5GzY8aCJujo2aix1HypxPBCw3zveoZd0w0vSuJulJgclE6FxU+ncO6QL7vEj10kA/ONucXrQ3R/YL8HbHiFdeK/09x9Sz+OkSx/xXayOId6Z+IB0xNHSl6/48WK7btOlurekHsOkyx41OsOdHnTBlSvkXLkddrh08TRpx5/S63dJTW03TrvWGDtWKl4jrfxa2rhS2r5VapYvsb73CKlwsLRplTTrcen3X03gztJYs5YOPaW139t730hbf5N2bZfyW0sdbWf7jJQKCqVVc6WPn5Z2/yNNuF9q0Up6bYqvz1YBOQl+SHsXGgYQGuECtOsmDTjDBWxtwuZV2hQKWr9YWva59PO3YXV07GUW0/ckqetAF4gne/eYcoqkdQulJR9Jm9dF6/MPc+GbNHMeSoujZ0nOsha8VTsnSHWP0H9tyUwGoZvbruzeIZXt2nddy7bp30eYpi2knaYshM8EvI/VAfDy52Y/T/K3IqaO6Tt1apLFLduY0Pd5JH79bmO6klCnvtKZk6WDzTS3bTJBd1ZiM+WUmVXsKY+wE8jw07E3SaOvtJgwxN1l28ZISNbznuz9AOA+Zpw0cqKZtq1FyF2m0JVmPQNOl44a7e7FvSSQeMfZuUkPWuSuNC0EBAq6u9ZhpMWhbqYla8yPV1cqwRhpbO/kHyLhBigJHJj78i/NvE9wRWARRcvcnLeXSuV2za4f2sH8v4fTwV12bJOwOnwbOgBr8Hlc79U73VL8Sea/TTI/qvqE4FWRdkxV8dzLTjQzBhd/KC2cIXXp75G6bVepfaEJ2dyF2PmXtGWD9ONsac13EXMrTHiCFDm9Yx97x4Rs3tKVVWaWU2oKXT1fmv28tOEH2/WzpFOuMusyHy+pZLGCH+MLhfJLArY8eT+OkBOmmeDmuy/dasybMMC5t3tQesai+j9/+73a+ItCrn7Kgt0i6f2HnAL3SHPlZe7npNYkYCIkB5BOv8/M1rSN1gN89Zrv0tGnhTu1c+xv+A86WIJeAPjAxaabqScVmnezEpwXyL3zp0v9Rltu7sgdM+H10m8rpCPNX2sTjhzldKAHQB8+4Ae+soGsBQc5ORXoPdKP/P1liRchjRNHjejdJGfgpciBToBAn/iSLeQkOBGcoqWdBbAApRZpCDK4QW0AeMEPnQDQh4/qaomwNvWY8/4QTFQRGh1lKFBSGw4CYud+qWSlFVbSkqepAilLUwHTjVdqAW+gw/o8o1/BR+rLCa5zEryF5eRWbaU/Yn5FbqWaSw0wlKBjbrSUNK8qN9TkrCcHx2MDuGlg5rxYVfCAFzoBUA7v8s4Oy/3ZQE6CDxxjJEzby7+ISNF8lKyNVW2Vj8jRmGJIP9EbfobPBr9l9y+aKn33njT3naorqQbBD51v3vBn1ABUcvDz7VtV19d0lbWPtyqQhl8o/TTbdrzI0bfu5Oa8fM6+5JLuBlUd7emiWdJnzxoes4ZUoMGh8qPTA9hx+IAf+MoGshZ87GSro3cbc89FZEZd4oXL4spoHz3xlrSgULr+BR8gTLLCo/fx8RVeuVFyErnbd7e6+5Soq4uvBD/t6gmXRnfhA37gKxuwOGk+mLBJwaSGnOO99KafnUyhNRknXiZ98bKZ7OJ9SRf95GY7z0yXNEildfp1Vn4utQhdHK2nHMV1aFBoXjD71LhAYCu358PGez6nb6eZKd1ku36Bu1Tx6ghndWeJd5yxz8hJVmcvsIj8laOkihpzgzOx4P30ZOiWYI72kgCEfyIcQS8AAv36o/1MSQtnSj98akFrVHha9QgdiiXoMuAA4Ae+sLyk46/EgmOeNAYhsEAQk8OHZz7mgnEvFZo2r3qn2yDPx5vX+/3U5zQZnfpY/LDdTAcokOkNdE+MmTx8wR9TniSQOKr3Gm49sEVnWkcAwpj+gg+iIOdPor8MIq55xlLcVk9zWEibTqa8N6OMgOsMGW89dpFbAkEOE55pwmUCgtois4zBZ1vd/qr38/AFf0xyCHg1QWLBiaQhioOU6EolxWwtE7A7T17ufTi7QedGa0qACkAaWvqxRGYIlRmC1wSY91BTGHysmuer4S9E/JreTyz4XvNLhgMBwiwtXGc6IjwDg5JMC+w+xUkoUKpZlvZRXkV49kfwB59JILGP43Pte0ZphsEhwYoIjAnXJUAPutCHD4CNgL9MscFXRX8TC06qwVwZ9QKY6/RpXnJe8YQ0aKxPYvxp7fxl0gMd6FHqQj+4DXzBX7yarI6LPB4m+Y8INMpEE4Iv3xZNNPNtCDBigtTfio5G5jjkY1JTmLvl0jkFhpmi0opSAHU+ysdae8os3X3i2WX7Nl9J/X7Jwzbj2+izONyrJkgsOIgoKqiwQIy2490TaYm5GemqY2/7ytHFZ3S0jRtMEczZVtsvPoNPZY7Ws4fhAE8XE5TrcqvKCIh8nGDkBJ7/priGgCxw/hQ3dUbM8aIoFX/8OivBeRHtjr/TdsEIzn/Xpx9h9hZHzO6zhm9cKIPmgoElzFOgEJXZPcpUBgpYDOuYlPJFhXVUhyXrfF0cN+dUgMPOt995tmat9N6DkRWmrk13nbXgIMHsB5/lzQHVEy3mShPkl6WZh40oAsGYy/GZCWWRhqgPCFack9YQGIWkA9bRsqIoChX8e+7b0vczMhdQ6fBwLyfBAzJ2i36YHyUo10RVdgAfxzwpQ+PDA94lLjAmpthgvg7jzMvjQAXHAAO3YXZfUOi5HtMnkhPEltkvk5LiuNKd75fgcYTUyASiil8vO/bwD4LU5euXOKOYd9w/4+9zTpygRu9jv64DvKChSuPjBGbPx0aOqYpMxZPk+n8TPB0x/LDbMb6zfDaixyYiM2jgM1AApqVDzVfxc2yQr6JYAr5eW3P6WhU8CMaRHNz/VG9ryQ7U03RifA/rd7KlomIz+Q9cMUm/f8XxZ3teZ4IHxgiMfA4eNdFrAr7B8Q8Cy+ZkH6ACzlyOdS54YJKpKRGaTEDAqmuwOHxgAGHx4QMFZnj1ExoEr2/73rDjDTteTzTwL43qTX/gdcprAAAAAElFTkSuQmCC;" parent="1" vertex="1">
          <mxGeometry x="210" y="30" width="35.77" height="30" as="geometry" />
        </mxCell>
        <mxCell id="HVFixg9VzNJbL1LoGBnK-11" value="" style="shape=image;verticalLabelPosition=bottom;labelBackgroundColor=default;verticalAlign=top;aspect=fixed;imageAspect=0;image=data:image/png,iVBORw0KGgoAAAANSUhEUgAAAD4AAAA+CAYAAABzwahEAAAAAXNSR0IArs4c6QAAAIRlWElmTU0AKgAAAAgABQESAAMAAAABAAEAAAEaAAUAAAABAAAASgEbAAUAAAABAAAAUgEoAAMAAAABAAIAAIdpAAQAAAABAAAAWgAAAAAAAACQAAAAAQAAAJAAAAABAAOgAQADAAAAAQABAACgAgAEAAAAAQAAAD6gAwAEAAAAAQAAAD4AAAAANxvLbgAAAAlwSFlzAAAWJQAAFiUBSVIk8AAACddJREFUaAXtmmmQVNUVx/8syrAKsguyIzAsGnRQXGAQQUypmKhRomWIKUqzGVJ+MlVJSlOpLEWi0VJj0IiahQSlEjVsijDgAm4RQUAWFZBFWUT2VXJ+c7z2MtPdt3tm4oeeU9X9+r13t3PPOf+z3JaKlBrA95TxJ04UG/8Ni43hwG8942EniuVaL/FikXTgs17iYSeK5Vq0Em/8/5BwQ5vltH5S5zOktt2kVu2kJi2kRvb8yEHp0D5p/yfSx+9JH62Xtq2VPjtetyurU8Z7fEUaeLHUu0w6qcQZgcnd26QDu6VjR6TGTaSmLX1TBo1OtFn/qrRqkbThrbrZgDphvN+F0vkTpFO7SEcPSx+ukLqdKZ34TFr6pPTG0/47naXmbaTTB0lsWN/hvmlowZIZ0tpX0lvX7L5WY/W2p0tjv29q3V/6ZIszuKrC1bl1J+niSVLPs6XNq6QZP5WOH/t88awiKVtgAwZdIp17jWmKaQS0abk0937pU9OW2qBaY3zACGmMMY1tLvmn9OYz1dsp6tyqg/Ty312iMNe6s9v4W7OkV2dK/W2sr06Wdm12Vd9vZjHs61IDg+KFj0hvz6s56zVmnMWMnCidfaW0ZbX09G+ciVxLG3qFNOo7Dmgblkkd+5g5DDam5koLjLlTOko7NyVGYbPG/dBMwdq8/i+p4jF7l6QliZZxv2ps42O+Jw02tVw2R3rhYZNyUN8s8zc+WbrgmyZNY/ipOxP2PvoW6cxxxti/U5lmqD0fm3n8XLrkVumcq6RmZg6z784ySY5XJq/CacS3nGkk8Pwf45hmtlO7Sic3ld55IcE0z5c/Z+psOtipL3dVCXB87gE3pdKRpmnfrtom9knBEh9yqVT2NVfNimmx03m7wwf82qJtar9wf3h/6vP0u5f+ZhJvbZIfbyBqOFCIzRckcdAb+8Smn38ofVmZ7/HlZQZSIPO2dQ5Y3YZ4+/Y9pHKTIP59oyF4LkLDaFd+s+FBp1ytq74viHHsGvSeZTaG+sUQTF97l3ThDQ5ks37vbo5nk82333SPhBt7dooFNodzj8i8c+61+Q3gxt2Wu316i7xVneCkywADsqkmuY/Sh6v+HuQff4cx3Fv6z+8sLDVpQ9MMpUvL3eb37rBIrcJtv8+50rqllU2yfu3dLi163ADPQLH3MIloL5byZnz4dYawNiFuJ5ZGTpS6W+QGMK15OdHr6CH3Bokn0qU/sADINvZRiwmI33MR6yi7yiLF6/Nj3GQRT4SS2Ddh5xdRV47uvc5xH4+7iwEhfHiluzOTiKEQBnfoZXHA53gR0y8vxktHeeyNSsZQw0YSvplAZMHDMT081GWDBtpcbU6L6xPC4gHm4mIpmnFSyz5mR++/YcybimajRid5eAkAzvyFA1ashjDu0hkGngZeBCoxRJa3/jVbn2ED64yhyGaeNoLMyTaaPkHnfu7myLth9L3XXdIAVz6EbSNFgG/xE5av783dGzAkX+hoKr91Te720RKHGYjMqjrq0FP6hkm3ZTtLNJ7yKKznUOm6XxpSN6uuR/Zny2a7rfe/KHu78JbiBUTMH0PRjLfr5pWSfTt92Kat3AZhFBo+we3/L7e7lOY/ZGp+lycbxN/5EpUYsCGWcWL5g6YZuMwYilZ1wknA6sYpxnAX97dMQCo5/08WX9tOb1yW6oI2rZBQ89jFpC947RLLya+2Co1t8sE96W+r3uPXCYJiKJrxZqc4YFFRWbnAykcWvGB729/3afhN6phMYEJJS29HEENVhsRk99bkVpl/A6TnXeup6JqXMrcLbw5ZjF/SItxlv0YzDlJ/8F/Lt39d/YArDYxG3GTppvnf12a6Roy+1Sso1M7AAIoJFB42vi29Mj0zXoQZiPCOHfWKTgzjFC6btw69s1+jGT9uCyCVzESkpqg7EuIDEUcvftwYXOn3UydZGjvWc+7rf2V1tCUWcj6WWQPwDDs22Kb18P65vgl8crnaMEY046hySfPQreqVCOqZ33r01HWguTPbqHUWO+/cmGi7b5dLmk0ipSWtJBqseLRq6Bp67TKA625tYoj1hZQ3V/toxonPe5VlH44cefsHrsrZWiIVam5EaJf9yKsqFCFn32MLNztNJuYFXwDWXLV20tPYRMUgJ45wL9S/g/uqrhc2fMsj8dETrnHGz0zi06z6OlSaYPjRsn3qyMQNVGbAmGzEprM+TCOGohkPAUKmshCTAWA7TLVj6m7Ji0P18fm4zBvMXJBwoA/fsazuwdy227XUeyCgGIpWdQr72E+f8zIX99sb4wBWIUThcfodbvMHPvXTl4vMS5AN4kJXL7LSsmHBEVtDddTDNIb1URWKoWjGQVhOM0gEUDvAK5lAfHwoQUShhJry4chp/E88U+MUhfiAejybMN2ep1d9QPO+JhDcbS4cCGuLZpwO7DoLKC13uwuDcA2ujrOxmhKS5iTmiR/7+RrjbTaVp+RFpWVdmladcb5vOlgQSw1jG9IOdQS1K9PFBqk9Q9oZmxam9k7cIT0kSxZIuhlo5UKPC4gVkomIcJgFReHUJfldtt95Mc5AuCEOA88alzosURPUpJlfC/0mUsOmW6WhO96Emnu6RlWaQFdfVz5z5s04ee+Wd61aeqPXtsNk2PyBPY7M4VlBV4v2Vi/23HrIWE9NqcRcNtlxJbkeQELCoQbreffF/GbLm3GGn/MH99WX3+6JS5iSenlb2/2a0sI/WzFhrdv0bf+Qbn7AXSXlZNJPCBWnrIxpzLvfn+XznRe4hYEBHsJMzrE4xuEEE8KHlpb7otKRt7JB5BcuC9cGkGHTqDeSDkwzDAcJhLscLCSHxZFTqCCJMzhV0zeftQrqFa72PEPlQPd0AOJdvsTGbbXxXvyrn452sQBl4n2uaaS3Qy/3WgDrKIQKkniYiMopYWLlAX6JL5CMrPtZcXWvME6m6zV3eiGDqI4YHrSnlMX/aUh150/N1DP38xoxzvCzzd4BNSRPyErFpd8FfqKZe/rMLWCScheFC4iCB+4NptE06u9f6vk4KomNkz6OmmRgY1Ed1K57fMLgPVK/B4/xKAy0pmZHUIM2Ebfnc4qTOmrizjxj7f1fnb90jPmu5+QAIAf8lKmSA5HE1Jl/UZUlyyN9PWKfNjYuWdpcs3HGrQ2qVcbDgjhYHHa1qz6ITH0d/w9YUYzIRPhlQIxTFI6eIGJ3zsNjDhG9R9x3nTAepuagEPdGASMUASkBc8oKWBHtYRpUUUlEQjpKlsVmLZ9n/3ZaEUar3WudMh6WSrABKHGwR+pK+Eloi+sj4qM6SlZHLs8pCJ98c/owV+y1xqgeMxEAiI1mOoWJGaO225gsipPqGS82uddLvF7iRbID9apeJIL+gs3/ARvtQ2mMhJcaAAAAAElFTkSuQmCC;" parent="1" vertex="1">
          <mxGeometry x="211.88" y="79" width="32" height="32" as="geometry" />
        </mxCell>
        <mxCell id="HVFixg9VzNJbL1LoGBnK-13" value="&lt;font style=&quot;font-size: 9px;&quot;&gt;Route53&lt;/font&gt;" style="text;strokeColor=none;align=center;fillColor=none;html=1;verticalAlign=middle;whiteSpace=wrap;rounded=0;" parent="1" vertex="1">
          <mxGeometry x="197.89" y="49" width="60" height="30" as="geometry" />
        </mxCell>
        <mxCell id="HVFixg9VzNJbL1LoGBnK-14" value="&lt;font style=&quot;font-size: 9px;&quot;&gt;CloudFront&lt;/font&gt;" style="text;strokeColor=none;align=center;fillColor=none;html=1;verticalAlign=middle;whiteSpace=wrap;rounded=0;" parent="1" vertex="1">
          <mxGeometry x="197.89" y="100" width="60" height="30" as="geometry" />
        </mxCell>
        <mxCell id="HVFixg9VzNJbL1LoGBnK-15" value="" style="sketch=0;outlineConnect=0;fontColor=#232F3E;gradientColor=none;fillColor=#8C4FFF;strokeColor=none;dashed=0;verticalLabelPosition=bottom;verticalAlign=top;align=center;html=1;fontSize=12;fontStyle=0;aspect=fixed;pointerEvents=1;shape=mxgraph.aws4.application_load_balancer;" parent="1" vertex="1">
          <mxGeometry x="208.88" y="125" width="38" height="38" as="geometry" />
        </mxCell>
        <mxCell id="HVFixg9VzNJbL1LoGBnK-16" value="&lt;font style=&quot;font-size: 8px;&quot;&gt;Application Load Balancer&lt;/font&gt;" style="text;strokeColor=none;align=center;fillColor=none;html=1;verticalAlign=middle;whiteSpace=wrap;rounded=0;" parent="1" vertex="1">
          <mxGeometry x="197.88" y="163" width="60" height="30" as="geometry" />
        </mxCell>
        <mxCell id="HVFixg9VzNJbL1LoGBnK-17" value="" style="shape=image;verticalLabelPosition=bottom;labelBackgroundColor=default;verticalAlign=top;aspect=fixed;imageAspect=0;image=data:image/png,iVBORw0KGgoAAAANSUhEUgAAAGwAAABsCAYAAACPZlfNAAAAAXNSR0IArs4c6QAAAIRlWElmTU0AKgAAAAgABQESAAMAAAABAAEAAAEaAAUAAAABAAAASgEbAAUAAAABAAAAUgEoAAMAAAABAAIAAIdpAAQAAAABAAAAWgAAAAAAAACQAAAAAQAAAJAAAAABAAOgAQADAAAAAQABAACgAgAEAAAAAQAAAGygAwAEAAAAAQAAAGwAAAAA6+M7iwAAAAlwSFlzAAAWJQAAFiUBSVIk8AAAKvdJREFUeAHtfQlgVNXV/+/Nnsm+kpBA2LcAAqKCCwIiiNalIrRuVVSs1qXVatd/1dZ+re3Xr7a2VXFXrFBRBAQERUFWUUHZlDUJIQkkZF9mezPv/X/nvgw7mACBYLnJzLx5c99dzrlnvfeeC5xJpxcE5s2b5z69Wvzf2dozePrvxPuZXp+BwBkInIHAGQicgcAZCJyBwH8fBLSmLstn9CW3ovebfj69Pxynd/NV6wUh5qJFi9p17do1VtO0Dna7PTkUCtUmJCSU19TU1Hfp0mXHt6Cfqgu207gjgijb66+/Hr9nz55Hu3XrtiQSiXwQDoff5v1XiLjpVVVV851O50f8/MNjjz3m5X15Rl6nbTotG0/g28aNG5ceFxc30u12P0YC65qYmGSP8XpNmCZxpZlM0jfT7/eDVGbwy3Y9HP5/gUBgUc+ePSvlt9MWa6dTw++77z43KeqHBQUFH/Mz0tjYaESMiGnwJZ+6aZj8xpfJl9wzTZ1v9Q2Nxp6KMp3PfVhWVvbQsmXL4k+nfkfberpQmLRTy8/P7xsbG7vA5/NlZmRkwOsllzMjCMPGP15WBeGbsg2NG2sQ0zcWsTfnwZZiJ9HZENY0uA3AH/Sbu3fv1kiduxsaGsZQvm2QR5te/Gjbqc0jTJyeeXl5ownGcS6X60oiKZnA1mw2S/ySeKBvqYAxuwyhGTvhCmnQOsZA3+UHGSPs13WA7cosOHskAXYb7BRhhmGgvr4evkZfdTgSnkW5N2PTpk3vX3755cG2ja62K4DVQCouLu5Pje8RXdcvSU1NTXC6XJrTbim2YaGrehONz3wFbXYFzFrCelwGYm7tBS3eCbM+CP8r24G3S2GmOGAbm4nYe/vAiCPKKN4MG8Vd2EAgFDLrKivrNLt9CbXKJ+Pj4xc3Ia1Nyri2RmHa5MmTHWPGjOlGCrqDyLqbWp4nJSVFURTFEqhSwCzzI7SIFPXPrbD7TWgD3HD9qBccAzKgO0w4yQKZE7aIgeCXlQj+axts62oRiTHg/lEfOEZmwNHOC0PyEHk6y62rrjaokIRZ32tUUv4ybdq07VRuwm2N4toKwqQd5tq1a3PS0tLuDemhCQnxCZ3J+kCqUnq4ICBMKvLPLIDtnXJEttXCdkEaHDd0huvcDGgxNsUCpaCIyDQtwisbyDFhBCKIrCqH/sYOGCvKYe+eCPOa9nB9NxcuUqPk4zgAbTdQiTFra2u3EnFv00x4ITc3N58ZVPv4eSYRAgIMZ3V19QNkgfru3buo6VEyWf/U8ETT083AukqzcvQ809flXbNq+BzTt2SX0gQNaoR7036XZtP9A35nRv/yUrPq4rlmIJfljHnPDH5RSc4YMQOiaVK1jBiqEGMX28H2GHV1dQ+T0jxN7TzlCBNgnaqkUcXOJdsbwdd9fA2g/NBiYmIQIVWQq8FGytCXlyE8fSeMD3fBkZeCyHWZ8F7ZEUaiC3ayM5vWMts/bBrQakMIvFsEzChF6KsqOEe2h2NCDlznZ0JziVpCGUeKFhuuob7epAxdSRb9FF+rsrKy+CB/PkXpVCBMsZfS0tIxBMTviai+VCg8LpdbsSX5kQMd4Y3V8P9lI2wbfTBcgOuBXnCOSIcjxQND5BhfDiLM1CjDFJF+MwQt3V2YKwcDR0W4OojIwlL4nvkarno79L4x8P6sH1x9UvaqYyRK6HrIrKio9FGbLKKh/iiRNp1FqH58c60nNsfJRJj22muveUeNGnU1kfQwO99fKIovIkgcEQRkiOO6oAGht4oQnlEER0IMwpemwHt7b9jSPbDb2XkiqZn4OQKkBF2qOuuDQi6yxwf/C5the78a4YZG2K7tAs+4HNg7sW0eTVGyFOajfCOLNB0Ox1rKt79SMXn7wQcfDDRVJAW3ejoZCJM6bCUlJUPYyYfIVoZTfU4k66Mm7aCCQAohlYQLGxCk0YsPqmDUNcB5fTc4rsmGo2siNCJKoGFvIftrLvRIRKC7BMbWGoTmlEB/PR/2eA/M0Rnw3NIVjo5xbCMVExbIPoCGuygm9bxeSOT983e/+92y5557Tm9ufW01n0LU+PHjXfQsPJlfUGCIT48shmLd0g7EnRTWI2bt5K/NqrwZpq/bu2bdnUvNSFWQOcKmHhbdI0ylwOTLeobPn/Ak7aFuYwZF8aAqE64JmpV3Lzcbes42a3vPNOue22AabCcNblW3fMg1kWYUFhaa5eXl04YPHy6KiQjUViWCViu8qKioLzt1Pb0TN1M175CQmGA67E6RPpRBZH/lfoQXlCA0rQjmrgAcQ9Ngn0CKOj8LdqdD9bqJeZ3kAUkWSbar6TSqV+6GKQrP0j0wsz1wXN8JrtHZsLWTlYHMQ49JmJRJxIEsfidl8hRykDdzcnLWtlajTyTCVFlUJgaJ1kc/3WWJiYmpfNltdju5Hm0hokvTNQRnFQBPF0IvD8Ho7UDsw/1h65cCu8dBZJL1CbpOZMtaAD1R/+gEkWFFHyRZYECHsa4Ovj+vhW1zAPZ2ZI8/6gjPVTkwOLAcwqaZkexRURyRV0n78T0i7h/p6elrmqqWsXdC0okAiyqDRm92UlLSFdSinmDrElLpnSB/l6kOGq+kqDqdml8NAs9+DdsXjTD6xMD5vVy4r+oM006fnxi57JKtBVrfCYHAIYUoVAn9KLlpE2TwymbY4H9nByL/oR29hZrrWcmIuYvyLS8ZWkLUuIdQGiorK6Urjbz+dTAYnMm5umJ+PyFIO26EFRQUZFLT+zEF8Sh60s9yedzOGHcMxDcrrTY5AsOLSxGctgP2pZUwO7nhmNgN9ouoomfEEkH7miA92veNX9pQ0tk4O204fY+fLLIc4Ze3wyyKQDs/Ac4bOsI1LJOt5aCTAUeHViDoB11dOuGynnCZQsqbypmBMmaSLp4Q5LUIPFQm7JxXGrWLacuWLTJRSIEt0lgUhIjZQE0hWNRgVt3xkdnYYZZZ3XeO2fD3DaYeCotYp1fBynvCNYhWKjBMpYTqjzXvJvNsgbBZ+8+1Zk1/KiVd3jH3TFpq6uxvJBxi/0N7W0G4GFu3bjVLSksrCKqxVE6Oa1nGMQ3o/Pz8XPLon3o8nrupnjviExLYQLF7yU7EIP26lupxEYyZO2F30yC+oh1cEzrB1pn8v+kvOsjk+4lKUQpVjWG54q0QAmbbEM6vpdpeC3vfFDiz45SsVDU32XXf1Aph66LYi4y1EsvmX7igDvpUssr5JTCCBpxXZcN+TQ6cvcgqbZLZIqZamip+XyMnB0IvUMY/16FDh/XRklryubf65j5En18nKhTvUZnoxrkpBxGnHo1odPnUGGj415dwzqyGXkvN78YO8JD9GVmUVxTQrZ3Eh6GJIUws2SwLD5HNtWic/BXcS+sQpEHnimd7H+oNz+XtCUt2n/AUpIqsPZYkXpkI5ZZGTbdhylY4Xt0JW5IH4avSEXtPXyBZNF4OZWqU0jaf3x/hXFwx2eQIyvyCltbZolbOnz8/ZeDAgZupqqcmJiWpLkpDgrsbYX5QhuALW2ALUX04OxaOe/Lg7JNAGcUm0TF4rABpUYcIPOp0AE0Gc1MjQm/nw1xUBbtOz73BOTGq4LqLyIxQAbqyPWJu7watVxINcvFJtggU+zWLXIWIF2q2GxH6Juvhn0xX13JSXlwErjs47XNpBrXLWIo4oVFTzAARIaXbt2/vd9FFF1XvV9g3XraklRptq++R3UylnWGxBrKAwNsF0KbtRHgHXTrD0+GireI8K5XTHXRPKJVXRq+whZZU9Y3tVpQhk1VcAMA/gosAN0oESTtgLq0mwjj9EuRvdo5vjuxwkh1O2lDhRaVwlBGBdtpQtK3s3+E0y209YEsgQlmGTG6q1ILmKqYnfFfQIX31cXqV83ANbxbB+UE5Qr3j4bk6C67xneFwiTZsQ/HOIlCk3JiZmTmVD6oirIqP/i7eueYm7f7777+Zk4nnsyJWYWj6mwTObzci6IzA+9dz4Phhd7hy4mETj7d0niVbA7cFvW9Oa0hEERbpEESY9AhVRxD43w0I/GID7Mspp8poLwk2bS5E4nToE3MR/+QQuC7jxOV3ctC4tRru7TqXVEVgfFoN4/1iaGfTcE9xEcGi6Ym+1/xk9ZP95YX02nQSrDmx8F6WBWNgPGV5EWzzuFCrHWcYaG9KRpfTKX7JGrrs5n711VfNRpjU1ZykvfPOO4kDBgx4o2PHjmNt5HPhygDqr/wQzkFp8P5pMIxYThpydB47a2lOM6w8QlPy5/t0D7SppO7FnHppsKBsI7TDsZRlgyn0L8mAewSVgMwYDjBLttn5aYSI4Hk7Yb62A7b1ZJ+kNsPL9R7XUVm4PheOzgkKqM0FzsEtF2IT2SYMRojH4MAI/GwNQl9UIGn2KGjJHBgUJTt37vyYOsH4QYMG7Tm4jCN9b7Ym0L59e/bVFCVDRoNmbKiBrdEGx1Vc5BJLwcq7FjUdqaoTd18BkoND/8VquGmSusT2Icn5YyKwj2qHmIk9YO9CSvfKbLIkopfQU50VvLqd8F7TCZFh7RF4bSsiL+RzeoVAnrID/gVE/gPdyMI6kXUJp7BKsKjHuv6md8mr2Gs0I8WDaI/mkj2IbKiGY1g7zjwobKaRJcoC12anZiNMVhlx+n5vwWaQi2Ac7JDb4qrRju3N0NoXAhQfeSPHj8aVUr5bshAvHv5uXmvZm21/bm+xZ6tJ1rUg0CQL9P6kL/QL20H/52YYX9TBsUuH9uBm1C8sg/uHPeHoR0rln+Wrb36noixVOAGHMuHEEhxkt3R1WWNAvcscW4u8/NFym9+SaE6he76iMjp6+2R9ChggsoIaaMimI/b7nVGzuQbh8jBXs7FbKsPRWyNIkD/H4HS4/28wXL/pg1AnrrhymXBwmid47+fQv6zaS2VHL+3Iv1oI4u8CsyZ0yTc6x2tpTMvSur1ZeH3UdBwIs/QzUWhbM3FSg6q6wJ9ana4jUqVjz8xdCJQ2EmFsPu0/RFyUS2SRn4ew8+dbUfdxBcKUUzrVbGuEH9pCgZCo81H25Uz1wD2+E2KnDYN/QIzSOp2lYRifVDRBsxkj4NBq1B2pS6CklOUD85jCuVqSms0SW1Loic1Lg5OO47qNdfB/3ojAl41cd6EhdkAStTGhJILDJnYWASqKD51+NS/QJvysAXFjkmHrQ1nGqeqjDWH1myCPDXekxsA9NgeOVVvpjWfxuqibB1DGMXXvaPW3pMA2iTChCgt8QMPKatRML6cXhYREUhPQR9xCORyzIhcMUjpZopgR6ZM6oPrtXWhcXIvgmjoENvsRc0Ec0m7OEXJSyBWKOlqSuh2ESljkM5fKGSFB2Dc8dLQCT/BvbRNhohLLqCZ0a9+nDCkjwDgF42rHId/LjvSRmXDnehEQc5As0aACYeMqXkeSE6m3tYenfwLqZ+9BqDgE/wf1KF73NZK+nwVP33g4qbGJkW1ptYciQpagGjEO2tUcHSw37BeIH5rvBOOh2cW1CGEcxcfOyJvdJGYkwsKCBMovGylDKjW5ND71oRy4M7jWQuDHl+Zi8/lpF0s3TKpj86hAI35wImJ6eNGwvAa1cyiDOKlRM7kUWr84tL8rRxn2nN5i3sMnm8uJCH/nP0Qb5jtfUulxpON8PFqztKlNJc7PkA3Rifx1FUwfKU00QVKE4eQ1VzBF6smmmEeBsMmksIn84pS+RsSZsuKXvXJwUjHx8lRkP9YFRhfe8NsR/qQajVyVpfx+SmM7tOtSLliuzGsJoriW49BMp/BOm0GYyA5/QT1KuA5+4zUr8OXFS6FXW7YeUchJQdpanKr/bNjHKH1qO/QaeijowFCmhajxQbI5emC4KI0vyjZe2zRO4ZMi027KJpJDzEtWFxHZxOdIwYdLwozBgSEeExYAO/2RijgUJg/3RDPvHe/zTdW0iCU2s2nHlC3/f9eg/C/0BNQQdWRvRpwAnzO60RYSYXBqCBSGUfz4JsSdTS97jFNRlZI7R6EEQZ5io/JJ6hUECJWJHXZo4i/0hMjuFmHGXCtuZTlc1kMfbvU7hx9mR6iWrqnWaTZHX+Ub3DJUEYQnh9re/Zk4d9Vw2OhNt1F1F9TJtHv8oBT0feMseAbFKXnl0rgkWObhCPoIN0pwtltAzL8Dk40eBouseF9Ekirx4FzRZ9hF1hktRRDcllJ0/J7aNhFGdq4c4xY8ZN/dGbkP9lDsSDXKETXNZaRrSL08A3Hn0DlLDTGyag9ZHCmCck6fkg+fW+NqplxqgASymnuyuqWJvabQyry00wRVahrlMMNPZqtNlq20SJGJ9FGq/FZRp/y9RRTWmq21kwrIsahkEGACrahSQDYoSea0uHWSoseEJ8MLJ5UK9w+6IZAXS+BS5d8SgPbAejTeuRRhTq9IXgG+kmoKeXLF20TwEZMgi/VIebIsz7SJ7ORAkftHfOjk/tA2KIx9jngsKhDzh+hpepFQVAsJOBnthJoylIlQYYN1FX44fj8QxqoyGFOLYdsVgmMx1+bfsBzhmzvARY+8zHHJSDDlRY4uWl8U+AqhanCwPiIyTE96aNFuGO+VkkBpPvDPTgfzkaSdtPRkpzZDYSbdTYqWqJ5HkwIsHbHyi3I5zSlTFCAIFYM5SI/GpgkrEc5LgvfVITAuSlaAN8qoEf65EA23fwz9i0rOJtvgzqOCIrKO/kihVtVxIktKD66pQM2kpQjc/hnM5wvhKAhR5PG3SBjBs0jBbJBqW7Rhp/CzjVAYwcapc0ncu2eBQ0Y+k3dgEkLrGhHcQefuu/Sgb/AjaTw3KfR0UykhsEs0rP3llxj28RjEPjMEIdmh+coOmNsb4Nrogn/iKthuyEXauFw09CPbpPiTFVDBknqYa7hY6D9cL7mmhhEGqO7TWo4IRNJc0AeR7VIepl7Snhol59mOaGarZp60tzaCMI5gCnryLoRLOdtAZMmmPpFpnu4xSH2gI/zLGlAzj2vctxmo/FcxHIM8SOFG824v9EXhzE2kFCKdc2BubhXSz8vgdiVu1puyBc46DoSXCkmNFXD9gDPKHVPge2IttBV1wE4iNUDjgc9xqSH09vQjXt8Zdi4Kje/MXTNqXYo0p63QFx0CJ21oHLUixtCg/y88qx6lkwtQu6Maec+cA3eHeIUEB0d8/DUpiBnoRelzpIhiomdRAMWfbke7idk4e8oIhWxuMeF0PG21ohBcN3WEd3gmfL9bA/s2H1ybfAj/ahtC9iBtOyecZL0R8fIKsnIoI2/vioQJXblcgEVZlvU+Nth28NVWEAb0fqgvdmUnofTvBfDPr8e6kcuR8cOOyJzYCTHpXgU8WycvOv66B+qXV6OeTmEPEVf9XCncq2LgGZiIUGEA/i8aaM9Rs+NUS+yoeMT/7VyEP+Qumak7gEIii2sTbUSWzlVUssrLHJlGj34WkMiJS9EQhfWRuhWO2hCiOIxUajNKh43RAtrf3BkDProI6b/uSCoJYvdv8rHukqWoW8U1+bStdr9cgJWDFqBuZz0yf90F9kviuGqKLq3VQdS/wjAQC2vp5RWlhZ6S5DBcXRmFgAtwYqn+x7x8IfQr06GnUeu7OxeeeSMR84eBiLm8E/2Obo5cmhWkNiGuJgJrAlHb+mgjLNECiriQHBzpPR4/CxkjMlH0++2oJ7LWjF4Kb1YsI95Q7nDpWskft8LJlVHt7ugCX/8q1M6tQriEbqxkE94cLzwjEuEdQO2CxEI0sHCy0CwPkv4ymJ4O3uRUDfVMRW2q5jZISUcaJm0KYdJIa4WwhiQiLL5fEsrf3YWi332N0FYfHD1jkf3DLkgiG/N0584XrueIPTcJ7u5xCJVwLWK8Ay4iRjROwYGYA8pI4BfiiFRKCiK+hIJE72tznT8Slva73ybbTOkipAE7ZVf27Z2RdlUWaj4vQ/oILqlzc0mdUvktsiBNwsnQRK4Ua1ekyB/BlmiNcmHxfN6Q7HJLJXnq9Extu90CeKrUTmqJqWNzqV4T/E322f7gFlxYGNn/w7qrfoq+HeZW9KfT5dMagG24tcK+TPIxwZMmnnnl1/sWQP4YYd62KYydEjm0r5FElPV/jN09/R9r8xS2F8RK19777b/2ok0gzNIF5H2vVrAXIdE7+/LIT9G7e7Mdcu/AHPItemf/z/2vpaxovuh9uWel6B1LmYnePfmf+7jNya+bNRIMMmdCXc4ChFxH5ROZoVwqSPGNazCsX5mTzwirpBtX5VdZ5Cr6KK9Fcbf8TFxIw/vykyw5kHCySiCqeqN1SPlNpVmXzB29aCqUX615OlUQ305NOqUUxjlC8UkoAOqNYTRWceJRIEfNUKZP5FM85XJLrtQ1v/oY1EuQRhVEzfgLQjhnwjdCtSnJgjdZBiLlKFQLgogs+S5ZGziXFma0OEGTzJDJrJdlTEs8EbZLYV8KtpJlSjCXrFXYr57o7yfr89RRGP12YS7lXT13A2Y8uQA7Nu6SjSjcg+zGZZMuxOV3DEdCWgLvF+Nfd72OLoNzEJsYj/nPLIa/1o+EzHhc++MxuPyu4fjnT1/Ejk8rMOlv30PeRT2JIKE/AxWFFXjq7te5oEbHb9/6CWor6vHesx/jwykrUVXGjX8eO/qd0x3XPHQp+o/oiYL1O/HnW17ABdeejdsev06hRTz1gs4nbn0GlTvqcN/km9GxZzbLPzXplFCYsD+GasL8V5bgyZtfRVJGIn755t349ax7iKhh+Pejs/Hmn+ZBDwahcxFMVWE9Pn9rIzYv3Ybbn5iAO/56PdyMVjr1kblYNW8dxt40CkXrS7Hy7S8IRVKNUJ8ZRsGXJdiytAAXfGcw6qsb8YcbnsacZxbhvKsG4Oev3Inbfz8epYW78eRtL2L1/PXI6pqOpIREvPuPxagt5yYFliN/pfllWD1zA+ISYpGWxR2Upwxdyp/Q/JFyYlb+kvWQkvaUVmLhsysQn+HAgy9OxFnDeiLv/B6Y8KsrcdkdF2LRq5+hrpI7VCTR8evzh3H/S7dixK3n4Yq7R+DW/7kawcYGbF5RiJ5Du6LzOdlYNPVTLq0W5kYvCdfHfTJjDVwMyjzm1mGY/9ISFHMnylX3XIq7/n4dLvj+2fjOvcPw9NrfIiY2CS/8fDokuOaA0QzyzM0Xy94R5CucYc2CjTB8Npx9RS/EkAMIzZ2qdNIpTLoq0qZyZzXK8iuQ268Dls78HAtfX46Fry3HB68tRWyyFzUV1SgimySpUG7Y0fOCDsjq1I6xnTgNwud7DuqMEOWUHiAVcqHMZbeNgI+LS+e++BEJgDv1KxqwYs5qDL/pfFJzGFtX7OA+sgCu/vEIToxaoYY0+hYdXhfZ6lCUb6/G5k8LcM5VZ3Hi0oHP5n4JX0MQQX8IGz/ehgidzcOuHUpknSpmaA2Rky7Dot3VGxgigVEIPp/zNT6dvUHJL4oLlUQRCRMde0rLEJvSifA3kJ6VaP1IZUC8HTYuf7OAJw9p6DW0C7Jy0zHzyY9wxR0jMefZRVxlb8cQsj9uE0M992THJrmVXBQ2Z1UlVzZk5KRxjaoT5Tv3YOSNF6DD4PYo+XIXdhfsQUp6HDYs2Yqr7hqGhHRZoXWMYzzacasXx/x+0hGm+D8pwMVpFBc3gp//3aG46fGrCdR9bEb6JusuYlNiUbKZVMYblhf/4H7yGWJZtMDMLhnocl4OVs/YiJXvfoEPX16G7Lz26NirHefVNSRnxWPrlwHsKapESofkpt1HFvKLNhdD14LI7t6eJUVw5x8m4Jcj/0qZmU8KtCHgI2XeM1ppphY7bDn0o0PkoCdVRNaDe3W07y0aLlSl99YnFwbnr8ixRDYrNqcu9sH9KPWaSO+QgvbdM7B87heoLK1FUvskJBGoyVlJWDL7U2xfVwg3w/ERgkrFFrl3QFLfOQcmGZic3MlyyS3nk4U1YPrvF6CGOzTPGtWbFBULF8vpN7IruJKRyswc+BuDbK8o82EUrSvFgheXods5ndF9YEeWpKH3Bd3RY0hnvP/KMsx++gMMvDQPiZkJHDRNczOqxua9CZwEbAIjaanVWqFsbnrStCQGDJNpBut2M4psNoVJbF6pYW+ZiYxtqHN6kLtJFIthi9Q+rb0ZjnAhDWcpKUTQFfeMwHP3Tccj33kKV0y6GFnd2im5s2rmlxh6RT/0G9aLebnvi4aRoeyfA8tk6EUC3ipQRt6AkXlI65uJ0g1lXFgTwSU3X0D4S/QAG8bcfjGWz/wUC19Zhe1fFGPwZf2xq6AcS/6zEqkZybjtiWu51oMIkcTYH5fceD6ev3+qmj+7YtJobvKjA9r6tUXvMqS4HIuRvMNc189HuYdNqE1MD0Zk8DDuVLNxIBU3O/O2bdsMBmwMM5CjOqXBxt319jQuPft3IQwuoHF05Gu/rsiQOWwHeVMmHsW2GXnjUMRSLix/YzWWzVjFQP9hZHbMxM2PXU1tcCi88V7EMlBz30t7UDnJ3lc6y3CSaoYQqZ36M2aUYEvJtggmUe1f8Owy5OSlIaMz1ykyrwwoN0NA/HbWT0lNS7CGtt9CUW7iYzHqBxdi5A8uQK9zOzOvqEPCJu3oMTQXyRxUISo1/Ud0k+JbnAQG0rRQYSPCUwsQbu+Ah/EVhd1zRzoZllnOSG9NqnCLi//GB7QdO3b8uaKiQmoyIhEG/19UatbnzTFr+s4y65/eYEYYWk9i80qM3qaA/cwp7TpK4u/cbG4G/UEzwJce4jEDjHVn9YePU7ip7xKu74DEesJNYfz2uy/1hvm8PHNo5dxZxnJCrEPqCgYYKk+XkHrRsiXAHp9jnOGNn2w2b8p5yPyf8U+ynMOVtV+lTZeqrZKb5ekMwSfwqH1mo1l+zjtmQ593zcbFxQI4BRIeQmcwsMoLw1sYjk8GQLMTyXcBj7rQhMpE1XZeyCCVTw+A7Zw0mM8Vov67H0GfUUgji8HCWKqSbzIy5cuREn+3c7mZk1t8XG4XHIz6ZmPQkeiIlmjW6rssUjwgcX2TbDY/6L4ENJGgJfKMIq+DnpH8ElnOpepzNtUl9C4vsim2VVj2uvc3oZF24PiHqRApXnFw/QcUrGRUSIl4lsPgZKF3SlA7bhG0Z/Ph7ZEF2zOD1OosFROLkbkZtkgkzL8XL16s9tMcWNqRvzUx7SNn2O8XrVOnTiWM5taekTYHer2yxYPrYXO5S58hghx9kxD5inEyppcgsqKCa/4YO7ArBbUE55IOH72/Ih/3Imm/OlvtMiqOrU9pHI3z6gAWvLIUn763FvOfXoreF3fFd39yqZI3BzROBqDqz94L1U6NLN03Kx/6E1/DeKsEWocYuH7VlzG4usDVjQtTuSlDMMtwRWBEvH8/+uij/1i9erXw4WanbwDj4cshKS/xemOGMPy8g6OcfbaKkXV9vne2w3iOy6V3BBAelADvw/1g6xEP0ytjgyOfWVtE1odvwgm+S5lCQJZvq8SPL/gDHCEH4jt48NNXbkOXgbmiHBxQHxmohT/ah6JARBhLytzMqAUSyHm1D2YnLgS6i0vrrulEJDFHE+VJPGBSls7Qe58xwCU1IoX2o/GfA+qVL8eEMEYfy6IbZxJHya0xnpjODHGu2JMIdwmKZe72IfL+Lki0N62AS68vTYd9PCNRM0SQdFEtsjmkKafuhrRb/hmiF1sYn0P8l7m9s5CWk6Io/2AwUUSRbQrSGIVnKTnKmyUMUMZTk7jEznF9B9jHtIc9g8FZ2CVh0SK0SFUaAzbvYaj0fzAO8At9+vShgdnydEwIa6rGvn79eoafSvsjGzKREUpNvpS5RMcCZQGby5HXOGU7bE9uYjg8RqW+iCtx/3geHFnWSl7pkLKjZAQeT0ta3u8DnrB0Q6rdHEpqbxh/VW1TnOPQhoVpw0VKQ6j9zQq4V4iSR/Z/Xw84bmGsK9k2RUQKCYq8qqupMXngjsbBPY1I++Ujjzyyc/r06QKiY0qHtqb5xciz0i/hyRczrOw9DHs+mmFlE72xsYrixGkrjdcL6xB6eTuwkCGFwgG4GBfKMZZh8boxYik5pbCVlp5S1PxmHmtOdo0DydIIJK4bk+wh285Io3N38YCEQiovHkRGJ8Lzg+6wdaJZI0iSbPRt+nyNcuRHA2P8fkQW+HivXr0+P9aW7P/c8SDsgHJ4amtcu3btBjGW7QNUk8eS2pxEnliHatSaFMhhhlwI8iSIEI+C8sZwJe+VqYib1AtGEmMV2mT/VttKShvgTk7SE2xcAu5/jpxifjV8tQ1wX9MBju91hJOxFWVvmzUHx8lV61wWygHMorx6mVr1J4MHD+aSZWtwt60ekp54OJqDoWa/z8PSduwsLg5Ro+S5Jlb48ADtGzlLJbS+yqya+LHZ0I+Hrg2Yaza+sd0MV/is0Ohi05Dni2Ukr5OZ9tVpXRlst7Sr8Y1tZuXZM8z6/vPMmtuWmMEN1eqoYUOdDcOg7rQHGafeKC7e6We/C3lc8fV33nmnBGs84WPwhBcYHUE8RCaLp0TcQJvtFvLvfnI8osw3iW0ms8E65VtkJbe6vlWECA8gsPfgSB3HKNyMwWtP5HZV0cTIkkQctHZSMkw4INslABG2ZnBOLMBQ7uYsHnq6oR62YTxqZHwunENpe6rAmRboyO5AcSBnjK1lkycTYTOGDBnC2Dutk1oNYWyulK3KZ0zAR6kdPSLRTNtlZkmcRyYJ6UpGQi99kKFgG3/5OVy7yf+znXD/kYeunZtJpIU57SEOr9ZsprSFifI2RJVJdlrqPC/Tz/Z4CsgGc+yIfWIg7EPakbuL31R0XA45ztnw1Cbxkmg8L/O3PATucSmFL8VJpcjWSEqWtkbBTWVKB9CjR49l/fvzCAXTjKuvq0nkuQkJPEGHvlZG6KRh5ujAHSfju9AjTDutkCbBs9ugb2JQMFKaPZ3hbjg9ogJ6SWFCCaJSHyMSpUH7o9+iLtKWjwd4c0ba/6e1iPx1E9tEo/8uxk/849mwdxXHtyj/RGYogMb6RpPnq5TS/pxGLjJp1qxZb8+ZM0c0P9VfaWZrpf3b3lp1SLmqnqeeeso1bty4PjS2f8aReTU760lJFgctwUF+Qg8gbTg/IssqEJy8GY46juSB3OPFI3+d/RnKlaXopEoXoXzMrFIhvKmrYvjyu762EgEqFK5PfAim0lE8qTfPhkllcGevFd2U2UWW0v8n56nUsv1TyTFefumll76gzD4piGpq8QGDLXqvtT8V8jZv3tyTUzZ/oQy4kLMACXR10c1nV2zSTlZoVEbgf5qj/f0aaNXcanQt9ydP7Ak7PRASSOWYT+sThBFL1H4Q2UnV+9Ut0N4q5bQHo+6MSob7/r6wpUrQaWF93KRO1ieaHxWJWmrAn/LQuvupom8mkKQfrU5RByNDAe/gmyfpu/bmm296eDLCCI7WGykHJjAeviOO827WTkjFrHjSAnf6z95FH2UhNC8dw2PbwXNdZ+XuUo0XkJH0RK4cKVHfJBtlDhZp8C2yjebFW1thvsdN7vWMEfz9jjwWiwOid4qFTBYlCK1vqKdHPximY2CqGL5Lly5dPGHCBBVB8Uh1fdvvC5TViyN3Ag+L20Q/Jac/QkqjlzedfiA5xzlSHTSr71tqhlI5lZM31/T/jcccyu8yISLTI+oJ3jgoWXnkZ11lqfvXerO+3yyzMXeeWXfPMtOo4TQIn983xcKjFYNBk6aJSaWigNNJ3422senzlOLkyMPyFDRrxYoVMTzI4HtE2E/IfnqRZbrdPC5YotiID4FARXAlI769kc+wDTwRlictuG+lO4hH1dt4tgkZ2WFbHShvoJeFe6BfJVXtoRF8TgocN4mKnklPC8sl9UnMRSJKnLM+yqmvKacmL1y4cMrEiRNlOXKbSYfv4SluHjWwHCLtfDbjcZJFt+TUZJubm9aVbsgWG/WMrr2uiofSUP6sreM0BjeVX98Fbh5VH2FsDUGcKOAanbm+2TzD8vVC2POpzJydAM9dlIP9iTDOHgibFDEUDAVRXVXN46G1Etb7U3pollOuinP2pMuoUwz646peGzt2rJvC/s8FBQVF9FfqwiqFdcmcbZhsUmaLfTMKzNrLF5JNzjbrr/vIDH2yhwev1Zn+lWVm7YTFnOmda9Zdxt9n5TfNRJNnCgflTLaUV11dFWb5O3gGyqN5eXkMTHUEMj2urpy4h1vbDjuulnIdSYSscdF55503l/HddxPAA6igeHnQDNV60hGVDXufRNhH08jOjkVkbQ30F7dAn8Opnf8UkIqo+d3LycOHe8M1gIfhkKBkWaEeDtGLXieH1ZQGAsH/o8Lzi+eff34Wvej6cTX4JDzcJlniEfptIwKzk5OTF/DE8t4yI5CcwvkqMaRULyjlqIIHuSnC4GSi1iMO7nMyZc02NUgiinkkm9hSdMiCA+Hr4qqq0Wd1717SVN9pwf5OJ4QJXFV7yb6GktJ+JL5KyhsBPk9dpw0nhjezyEm1BsNm29QqKK7QooreaE13BPjcNOZ9Pjs7+xOWJ7bDaZVON4RFgavJdA6P25UD6MbRwTyKjmXNG+u1O2lUqwWftI11LnZpbKg3fI0+k8hdQCP97/n5+StHjBghs46nBUVFOxz9PF0RFm2/ja4h17333juWyLiBCkkvIi+FOoWDU/ONpCQ/J1W30uh9k1rfdD4kbqTTjqqinf22fWpyRidlVH+eMXkuF2h2Xb58eQY7KSJM0uk+OK1efMveD0bKwd+/Zd09050zEDgDgTMQOAOBMxA4A4EzEDgDgTMQUBCYN2+ebNk8k9o+BJSJ8v8BwPeIWg2zcKkAAAAASUVORK5CYII=;" parent="1" vertex="1">
          <mxGeometry x="203.88" y="193" width="48" height="48" as="geometry" />
        </mxCell>
        <mxCell id="HVFixg9VzNJbL1LoGBnK-18" value="&lt;font style=&quot;font-size: 8px;&quot;&gt;Proxy Edge&lt;/font&gt;" style="text;strokeColor=none;align=center;fillColor=none;html=1;verticalAlign=middle;whiteSpace=wrap;rounded=0;" parent="1" vertex="1">
          <mxGeometry x="197.89" y="230" width="60" height="20" as="geometry" />
        </mxCell>
        <mxCell id="HVFixg9VzNJbL1LoGBnK-19" value="" style="whiteSpace=wrap;html=1;" parent="1" vertex="1">
          <mxGeometry x="40" y="260" width="430" height="240" as="geometry" />
        </mxCell>
        <mxCell id="HVFixg9VzNJbL1LoGBnK-20" value="" style="shape=image;verticalLabelPosition=bottom;labelBackgroundColor=default;verticalAlign=top;aspect=fixed;imageAspect=0;image=data:image/png,iVBORw0KGgoAAAANSUhEUgAAAGwAAABsCAYAAACPZlfNAAAAAXNSR0IArs4c6QAAAIRlWElmTU0AKgAAAAgABQESAAMAAAABAAEAAAEaAAUAAAABAAAASgEbAAUAAAABAAAAUgEoAAMAAAABAAIAAIdpAAQAAAABAAAAWgAAAAAAAACQAAAAAQAAAJAAAAABAAOgAQADAAAAAQABAACgAgAEAAAAAQAAAGygAwAEAAAAAQAAAGwAAAAA6+M7iwAAAAlwSFlzAAAWJQAAFiUBSVIk8AAAKvdJREFUeAHtfQlgVNXV/+/Nnsm+kpBA2LcAAqKCCwIiiNalIrRuVVSs1qXVatd/1dZ+re3Xr7a2VXFXrFBRBAQERUFWUUHZlDUJIQkkZF9mezPv/X/nvgw7mACBYLnJzLx5c99dzrlnvfeeC5xJpxcE5s2b5z69Wvzf2dozePrvxPuZXp+BwBkInIHAGQicgcAZCJyBwH8fBLSmLstn9CW3ovebfj69Pxynd/NV6wUh5qJFi9p17do1VtO0Dna7PTkUCtUmJCSU19TU1Hfp0mXHt6Cfqgu207gjgijb66+/Hr9nz55Hu3XrtiQSiXwQDoff5v1XiLjpVVVV851O50f8/MNjjz3m5X15Rl6nbTotG0/g28aNG5ceFxc30u12P0YC65qYmGSP8XpNmCZxpZlM0jfT7/eDVGbwy3Y9HP5/gUBgUc+ePSvlt9MWa6dTw++77z43KeqHBQUFH/Mz0tjYaESMiGnwJZ+6aZj8xpfJl9wzTZ1v9Q2Nxp6KMp3PfVhWVvbQsmXL4k+nfkfberpQmLRTy8/P7xsbG7vA5/NlZmRkwOsllzMjCMPGP15WBeGbsg2NG2sQ0zcWsTfnwZZiJ9HZENY0uA3AH/Sbu3fv1kiduxsaGsZQvm2QR5te/Gjbqc0jTJyeeXl5ownGcS6X60oiKZnA1mw2S/ySeKBvqYAxuwyhGTvhCmnQOsZA3+UHGSPs13WA7cosOHskAXYb7BRhhmGgvr4evkZfdTgSnkW5N2PTpk3vX3755cG2ja62K4DVQCouLu5Pje8RXdcvSU1NTXC6XJrTbim2YaGrehONz3wFbXYFzFrCelwGYm7tBS3eCbM+CP8r24G3S2GmOGAbm4nYe/vAiCPKKN4MG8Vd2EAgFDLrKivrNLt9CbXKJ+Pj4xc3Ia1Nyri2RmHa5MmTHWPGjOlGCrqDyLqbWp4nJSVFURTFEqhSwCzzI7SIFPXPrbD7TWgD3HD9qBccAzKgO0w4yQKZE7aIgeCXlQj+axts62oRiTHg/lEfOEZmwNHOC0PyEHk6y62rrjaokIRZ32tUUv4ybdq07VRuwm2N4toKwqQd5tq1a3PS0tLuDemhCQnxCZ3J+kCqUnq4ICBMKvLPLIDtnXJEttXCdkEaHDd0huvcDGgxNsUCpaCIyDQtwisbyDFhBCKIrCqH/sYOGCvKYe+eCPOa9nB9NxcuUqPk4zgAbTdQiTFra2u3EnFv00x4ITc3N58ZVPv4eSYRAgIMZ3V19QNkgfru3buo6VEyWf/U8ETT083AukqzcvQ809flXbNq+BzTt2SX0gQNaoR7036XZtP9A35nRv/yUrPq4rlmIJfljHnPDH5RSc4YMQOiaVK1jBiqEGMX28H2GHV1dQ+T0jxN7TzlCBNgnaqkUcXOJdsbwdd9fA2g/NBiYmIQIVWQq8FGytCXlyE8fSeMD3fBkZeCyHWZ8F7ZEUaiC3ayM5vWMts/bBrQakMIvFsEzChF6KsqOEe2h2NCDlznZ0JziVpCGUeKFhuuob7epAxdSRb9FF+rsrKy+CB/PkXpVCBMsZfS0tIxBMTviai+VCg8LpdbsSX5kQMd4Y3V8P9lI2wbfTBcgOuBXnCOSIcjxQND5BhfDiLM1CjDFJF+MwQt3V2YKwcDR0W4OojIwlL4nvkarno79L4x8P6sH1x9UvaqYyRK6HrIrKio9FGbLKKh/iiRNp1FqH58c60nNsfJRJj22muveUeNGnU1kfQwO99fKIovIkgcEQRkiOO6oAGht4oQnlEER0IMwpemwHt7b9jSPbDb2XkiqZn4OQKkBF2qOuuDQi6yxwf/C5the78a4YZG2K7tAs+4HNg7sW0eTVGyFOajfCOLNB0Ox1rKt79SMXn7wQcfDDRVJAW3ejoZCJM6bCUlJUPYyYfIVoZTfU4k66Mm7aCCQAohlYQLGxCk0YsPqmDUNcB5fTc4rsmGo2siNCJKoGFvIftrLvRIRKC7BMbWGoTmlEB/PR/2eA/M0Rnw3NIVjo5xbCMVExbIPoCGuygm9bxeSOT983e/+92y5557Tm9ufW01n0LU+PHjXfQsPJlfUGCIT48shmLd0g7EnRTWI2bt5K/NqrwZpq/bu2bdnUvNSFWQOcKmHhbdI0ylwOTLeobPn/Ak7aFuYwZF8aAqE64JmpV3Lzcbes42a3vPNOue22AabCcNblW3fMg1kWYUFhaa5eXl04YPHy6KiQjUViWCViu8qKioLzt1Pb0TN1M175CQmGA67E6RPpRBZH/lfoQXlCA0rQjmrgAcQ9Ngn0CKOj8LdqdD9bqJeZ3kAUkWSbar6TSqV+6GKQrP0j0wsz1wXN8JrtHZsLWTlYHMQ49JmJRJxIEsfidl8hRykDdzcnLWtlajTyTCVFlUJgaJ1kc/3WWJiYmpfNltdju5Hm0hokvTNQRnFQBPF0IvD8Ho7UDsw/1h65cCu8dBZJL1CbpOZMtaAD1R/+gEkWFFHyRZYECHsa4Ovj+vhW1zAPZ2ZI8/6gjPVTkwOLAcwqaZkexRURyRV0n78T0i7h/p6elrmqqWsXdC0okAiyqDRm92UlLSFdSinmDrElLpnSB/l6kOGq+kqDqdml8NAs9+DdsXjTD6xMD5vVy4r+oM006fnxi57JKtBVrfCYHAIYUoVAn9KLlpE2TwymbY4H9nByL/oR29hZrrWcmIuYvyLS8ZWkLUuIdQGiorK6Urjbz+dTAYnMm5umJ+PyFIO26EFRQUZFLT+zEF8Sh60s9yedzOGHcMxDcrrTY5AsOLSxGctgP2pZUwO7nhmNgN9ouoomfEEkH7miA92veNX9pQ0tk4O204fY+fLLIc4Ze3wyyKQDs/Ac4bOsI1LJOt5aCTAUeHViDoB11dOuGynnCZQsqbypmBMmaSLp4Q5LUIPFQm7JxXGrWLacuWLTJRSIEt0lgUhIjZQE0hWNRgVt3xkdnYYZZZ3XeO2fD3DaYeCotYp1fBynvCNYhWKjBMpYTqjzXvJvNsgbBZ+8+1Zk1/KiVd3jH3TFpq6uxvJBxi/0N7W0G4GFu3bjVLSksrCKqxVE6Oa1nGMQ3o/Pz8XPLon3o8nrupnjviExLYQLF7yU7EIP26lupxEYyZO2F30yC+oh1cEzrB1pn8v+kvOsjk+4lKUQpVjWG54q0QAmbbEM6vpdpeC3vfFDiz45SsVDU32XXf1Aph66LYi4y1EsvmX7igDvpUssr5JTCCBpxXZcN+TQ6cvcgqbZLZIqZamip+XyMnB0IvUMY/16FDh/XRklryubf65j5En18nKhTvUZnoxrkpBxGnHo1odPnUGGj415dwzqyGXkvN78YO8JD9GVmUVxTQrZ3Eh6GJIUws2SwLD5HNtWic/BXcS+sQpEHnimd7H+oNz+XtCUt2n/AUpIqsPZYkXpkI5ZZGTbdhylY4Xt0JW5IH4avSEXtPXyBZNF4OZWqU0jaf3x/hXFwx2eQIyvyCltbZolbOnz8/ZeDAgZupqqcmJiWpLkpDgrsbYX5QhuALW2ALUX04OxaOe/Lg7JNAGcUm0TF4rABpUYcIPOp0AE0Gc1MjQm/nw1xUBbtOz73BOTGq4LqLyIxQAbqyPWJu7watVxINcvFJtggU+zWLXIWIF2q2GxH6Juvhn0xX13JSXlwErjs47XNpBrXLWIo4oVFTzAARIaXbt2/vd9FFF1XvV9g3XraklRptq++R3UylnWGxBrKAwNsF0KbtRHgHXTrD0+GireI8K5XTHXRPKJVXRq+whZZU9Y3tVpQhk1VcAMA/gosAN0oESTtgLq0mwjj9EuRvdo5vjuxwkh1O2lDhRaVwlBGBdtpQtK3s3+E0y209YEsgQlmGTG6q1ILmKqYnfFfQIX31cXqV83ANbxbB+UE5Qr3j4bk6C67xneFwiTZsQ/HOIlCk3JiZmTmVD6oirIqP/i7eueYm7f7777+Zk4nnsyJWYWj6mwTObzci6IzA+9dz4Phhd7hy4mETj7d0niVbA7cFvW9Oa0hEERbpEESY9AhVRxD43w0I/GID7Mspp8poLwk2bS5E4nToE3MR/+QQuC7jxOV3ctC4tRru7TqXVEVgfFoN4/1iaGfTcE9xEcGi6Ym+1/xk9ZP95YX02nQSrDmx8F6WBWNgPGV5EWzzuFCrHWcYaG9KRpfTKX7JGrrs5n711VfNRpjU1ZykvfPOO4kDBgx4o2PHjmNt5HPhygDqr/wQzkFp8P5pMIxYThpydB47a2lOM6w8QlPy5/t0D7SppO7FnHppsKBsI7TDsZRlgyn0L8mAewSVgMwYDjBLttn5aYSI4Hk7Yb62A7b1ZJ+kNsPL9R7XUVm4PheOzgkKqM0FzsEtF2IT2SYMRojH4MAI/GwNQl9UIGn2KGjJHBgUJTt37vyYOsH4QYMG7Tm4jCN9b7Ym0L59e/bVFCVDRoNmbKiBrdEGx1Vc5BJLwcq7FjUdqaoTd18BkoND/8VquGmSusT2Icn5YyKwj2qHmIk9YO9CSvfKbLIkopfQU50VvLqd8F7TCZFh7RF4bSsiL+RzeoVAnrID/gVE/gPdyMI6kXUJp7BKsKjHuv6md8mr2Gs0I8WDaI/mkj2IbKiGY1g7zjwobKaRJcoC12anZiNMVhlx+n5vwWaQi2Ac7JDb4qrRju3N0NoXAhQfeSPHj8aVUr5bshAvHv5uXmvZm21/bm+xZ6tJ1rUg0CQL9P6kL/QL20H/52YYX9TBsUuH9uBm1C8sg/uHPeHoR0rln+Wrb36noixVOAGHMuHEEhxkt3R1WWNAvcscW4u8/NFym9+SaE6he76iMjp6+2R9ChggsoIaaMimI/b7nVGzuQbh8jBXs7FbKsPRWyNIkD/H4HS4/28wXL/pg1AnrrhymXBwmid47+fQv6zaS2VHL+3Iv1oI4u8CsyZ0yTc6x2tpTMvSur1ZeH3UdBwIs/QzUWhbM3FSg6q6wJ9ana4jUqVjz8xdCJQ2EmFsPu0/RFyUS2SRn4ew8+dbUfdxBcKUUzrVbGuEH9pCgZCo81H25Uz1wD2+E2KnDYN/QIzSOp2lYRifVDRBsxkj4NBq1B2pS6CklOUD85jCuVqSms0SW1Loic1Lg5OO47qNdfB/3ojAl41cd6EhdkAStTGhJILDJnYWASqKD51+NS/QJvysAXFjkmHrQ1nGqeqjDWH1myCPDXekxsA9NgeOVVvpjWfxuqibB1DGMXXvaPW3pMA2iTChCgt8QMPKatRML6cXhYREUhPQR9xCORyzIhcMUjpZopgR6ZM6oPrtXWhcXIvgmjoENvsRc0Ec0m7OEXJSyBWKOlqSuh2ESljkM5fKGSFB2Dc8dLQCT/BvbRNhohLLqCZ0a9+nDCkjwDgF42rHId/LjvSRmXDnehEQc5As0aACYeMqXkeSE6m3tYenfwLqZ+9BqDgE/wf1KF73NZK+nwVP33g4qbGJkW1ptYciQpagGjEO2tUcHSw37BeIH5rvBOOh2cW1CGEcxcfOyJvdJGYkwsKCBMovGylDKjW5ND71oRy4M7jWQuDHl+Zi8/lpF0s3TKpj86hAI35wImJ6eNGwvAa1cyiDOKlRM7kUWr84tL8rRxn2nN5i3sMnm8uJCH/nP0Qb5jtfUulxpON8PFqztKlNJc7PkA3Rifx1FUwfKU00QVKE4eQ1VzBF6smmmEeBsMmksIn84pS+RsSZsuKXvXJwUjHx8lRkP9YFRhfe8NsR/qQajVyVpfx+SmM7tOtSLliuzGsJoriW49BMp/BOm0GYyA5/QT1KuA5+4zUr8OXFS6FXW7YeUchJQdpanKr/bNjHKH1qO/QaeijowFCmhajxQbI5emC4KI0vyjZe2zRO4ZMi027KJpJDzEtWFxHZxOdIwYdLwozBgSEeExYAO/2RijgUJg/3RDPvHe/zTdW0iCU2s2nHlC3/f9eg/C/0BNQQdWRvRpwAnzO60RYSYXBqCBSGUfz4JsSdTS97jFNRlZI7R6EEQZ5io/JJ6hUECJWJHXZo4i/0hMjuFmHGXCtuZTlc1kMfbvU7hx9mR6iWrqnWaTZHX+Ub3DJUEYQnh9re/Zk4d9Vw2OhNt1F1F9TJtHv8oBT0feMseAbFKXnl0rgkWObhCPoIN0pwtltAzL8Dk40eBouseF9Ekirx4FzRZ9hF1hktRRDcllJ0/J7aNhFGdq4c4xY8ZN/dGbkP9lDsSDXKETXNZaRrSL08A3Hn0DlLDTGyag9ZHCmCck6fkg+fW+NqplxqgASymnuyuqWJvabQyry00wRVahrlMMNPZqtNlq20SJGJ9FGq/FZRp/y9RRTWmq21kwrIsahkEGACrahSQDYoSea0uHWSoseEJ8MLJ5UK9w+6IZAXS+BS5d8SgPbAejTeuRRhTq9IXgG+kmoKeXLF20TwEZMgi/VIebIsz7SJ7ORAkftHfOjk/tA2KIx9jngsKhDzh+hpepFQVAsJOBnthJoylIlQYYN1FX44fj8QxqoyGFOLYdsVgmMx1+bfsBzhmzvARY+8zHHJSDDlRY4uWl8U+AqhanCwPiIyTE96aNFuGO+VkkBpPvDPTgfzkaSdtPRkpzZDYSbdTYqWqJ5HkwIsHbHyi3I5zSlTFCAIFYM5SI/GpgkrEc5LgvfVITAuSlaAN8qoEf65EA23fwz9i0rOJtvgzqOCIrKO/kihVtVxIktKD66pQM2kpQjc/hnM5wvhKAhR5PG3SBjBs0jBbJBqW7Rhp/CzjVAYwcapc0ncu2eBQ0Y+k3dgEkLrGhHcQefuu/Sgb/AjaTw3KfR0UykhsEs0rP3llxj28RjEPjMEIdmh+coOmNsb4Nrogn/iKthuyEXauFw09CPbpPiTFVDBknqYa7hY6D9cL7mmhhEGqO7TWo4IRNJc0AeR7VIepl7Snhol59mOaGarZp60tzaCMI5gCnryLoRLOdtAZMmmPpFpnu4xSH2gI/zLGlAzj2vctxmo/FcxHIM8SOFG824v9EXhzE2kFCKdc2BubhXSz8vgdiVu1puyBc46DoSXCkmNFXD9gDPKHVPge2IttBV1wE4iNUDjgc9xqSH09vQjXt8Zdi4Kje/MXTNqXYo0p63QFx0CJ21oHLUixtCg/y88qx6lkwtQu6Maec+cA3eHeIUEB0d8/DUpiBnoRelzpIhiomdRAMWfbke7idk4e8oIhWxuMeF0PG21ohBcN3WEd3gmfL9bA/s2H1ybfAj/ahtC9iBtOyecZL0R8fIKsnIoI2/vioQJXblcgEVZlvU+Nth28NVWEAb0fqgvdmUnofTvBfDPr8e6kcuR8cOOyJzYCTHpXgU8WycvOv66B+qXV6OeTmEPEVf9XCncq2LgGZiIUGEA/i8aaM9Rs+NUS+yoeMT/7VyEP+Qumak7gEIii2sTbUSWzlVUssrLHJlGj34WkMiJS9EQhfWRuhWO2hCiOIxUajNKh43RAtrf3BkDProI6b/uSCoJYvdv8rHukqWoW8U1+bStdr9cgJWDFqBuZz0yf90F9kviuGqKLq3VQdS/wjAQC2vp5RWlhZ6S5DBcXRmFgAtwYqn+x7x8IfQr06GnUeu7OxeeeSMR84eBiLm8E/2Obo5cmhWkNiGuJgJrAlHb+mgjLNECiriQHBzpPR4/CxkjMlH0++2oJ7LWjF4Kb1YsI95Q7nDpWskft8LJlVHt7ugCX/8q1M6tQriEbqxkE94cLzwjEuEdQO2CxEI0sHCy0CwPkv4ymJ4O3uRUDfVMRW2q5jZISUcaJm0KYdJIa4WwhiQiLL5fEsrf3YWi332N0FYfHD1jkf3DLkgiG/N0584XrueIPTcJ7u5xCJVwLWK8Ay4iRjROwYGYA8pI4BfiiFRKCiK+hIJE72tznT8Slva73ybbTOkipAE7ZVf27Z2RdlUWaj4vQ/oILqlzc0mdUvktsiBNwsnQRK4Ua1ekyB/BlmiNcmHxfN6Q7HJLJXnq9Extu90CeKrUTmqJqWNzqV4T/E322f7gFlxYGNn/w7qrfoq+HeZW9KfT5dMagG24tcK+TPIxwZMmnnnl1/sWQP4YYd62KYydEjm0r5FElPV/jN09/R9r8xS2F8RK19777b/2ok0gzNIF5H2vVrAXIdE7+/LIT9G7e7Mdcu/AHPItemf/z/2vpaxovuh9uWel6B1LmYnePfmf+7jNya+bNRIMMmdCXc4ChFxH5ROZoVwqSPGNazCsX5mTzwirpBtX5VdZ5Cr6KK9Fcbf8TFxIw/vykyw5kHCySiCqeqN1SPlNpVmXzB29aCqUX615OlUQ305NOqUUxjlC8UkoAOqNYTRWceJRIEfNUKZP5FM85XJLrtQ1v/oY1EuQRhVEzfgLQjhnwjdCtSnJgjdZBiLlKFQLgogs+S5ZGziXFma0OEGTzJDJrJdlTEs8EbZLYV8KtpJlSjCXrFXYr57o7yfr89RRGP12YS7lXT13A2Y8uQA7Nu6SjSjcg+zGZZMuxOV3DEdCWgLvF+Nfd72OLoNzEJsYj/nPLIa/1o+EzHhc++MxuPyu4fjnT1/Ejk8rMOlv30PeRT2JIKE/AxWFFXjq7te5oEbHb9/6CWor6vHesx/jwykrUVXGjX8eO/qd0x3XPHQp+o/oiYL1O/HnW17ABdeejdsev06hRTz1gs4nbn0GlTvqcN/km9GxZzbLPzXplFCYsD+GasL8V5bgyZtfRVJGIn755t349ax7iKhh+Pejs/Hmn+ZBDwahcxFMVWE9Pn9rIzYv3Ybbn5iAO/56PdyMVjr1kblYNW8dxt40CkXrS7Hy7S8IRVKNUJ8ZRsGXJdiytAAXfGcw6qsb8YcbnsacZxbhvKsG4Oev3Inbfz8epYW78eRtL2L1/PXI6pqOpIREvPuPxagt5yYFliN/pfllWD1zA+ISYpGWxR2Upwxdyp/Q/JFyYlb+kvWQkvaUVmLhsysQn+HAgy9OxFnDeiLv/B6Y8KsrcdkdF2LRq5+hrpI7VCTR8evzh3H/S7dixK3n4Yq7R+DW/7kawcYGbF5RiJ5Du6LzOdlYNPVTLq0W5kYvCdfHfTJjDVwMyjzm1mGY/9ISFHMnylX3XIq7/n4dLvj+2fjOvcPw9NrfIiY2CS/8fDokuOaA0QzyzM0Xy94R5CucYc2CjTB8Npx9RS/EkAMIzZ2qdNIpTLoq0qZyZzXK8iuQ268Dls78HAtfX46Fry3HB68tRWyyFzUV1SgimySpUG7Y0fOCDsjq1I6xnTgNwud7DuqMEOWUHiAVcqHMZbeNgI+LS+e++BEJgDv1KxqwYs5qDL/pfFJzGFtX7OA+sgCu/vEIToxaoYY0+hYdXhfZ6lCUb6/G5k8LcM5VZ3Hi0oHP5n4JX0MQQX8IGz/ehgidzcOuHUpknSpmaA2Rky7Dot3VGxgigVEIPp/zNT6dvUHJL4oLlUQRCRMde0rLEJvSifA3kJ6VaP1IZUC8HTYuf7OAJw9p6DW0C7Jy0zHzyY9wxR0jMefZRVxlb8cQsj9uE0M992THJrmVXBQ2Z1UlVzZk5KRxjaoT5Tv3YOSNF6DD4PYo+XIXdhfsQUp6HDYs2Yqr7hqGhHRZoXWMYzzacasXx/x+0hGm+D8pwMVpFBc3gp//3aG46fGrCdR9bEb6JusuYlNiUbKZVMYblhf/4H7yGWJZtMDMLhnocl4OVs/YiJXvfoEPX16G7Lz26NirHefVNSRnxWPrlwHsKapESofkpt1HFvKLNhdD14LI7t6eJUVw5x8m4Jcj/0qZmU8KtCHgI2XeM1ppphY7bDn0o0PkoCdVRNaDe3W07y0aLlSl99YnFwbnr8ixRDYrNqcu9sH9KPWaSO+QgvbdM7B87heoLK1FUvskJBGoyVlJWDL7U2xfVwg3w/ERgkrFFrl3QFLfOQcmGZic3MlyyS3nk4U1YPrvF6CGOzTPGtWbFBULF8vpN7IruJKRyswc+BuDbK8o82EUrSvFgheXods5ndF9YEeWpKH3Bd3RY0hnvP/KMsx++gMMvDQPiZkJHDRNczOqxua9CZwEbAIjaanVWqFsbnrStCQGDJNpBut2M4psNoVJbF6pYW+ZiYxtqHN6kLtJFIthi9Q+rb0ZjnAhDWcpKUTQFfeMwHP3Tccj33kKV0y6GFnd2im5s2rmlxh6RT/0G9aLebnvi4aRoeyfA8tk6EUC3ipQRt6AkXlI65uJ0g1lXFgTwSU3X0D4S/QAG8bcfjGWz/wUC19Zhe1fFGPwZf2xq6AcS/6zEqkZybjtiWu51oMIkcTYH5fceD6ev3+qmj+7YtJobvKjA9r6tUXvMqS4HIuRvMNc189HuYdNqE1MD0Zk8DDuVLNxIBU3O/O2bdsMBmwMM5CjOqXBxt319jQuPft3IQwuoHF05Gu/rsiQOWwHeVMmHsW2GXnjUMRSLix/YzWWzVjFQP9hZHbMxM2PXU1tcCi88V7EMlBz30t7UDnJ3lc6y3CSaoYQqZ36M2aUYEvJtggmUe1f8Owy5OSlIaMz1ykyrwwoN0NA/HbWT0lNS7CGtt9CUW7iYzHqBxdi5A8uQK9zOzOvqEPCJu3oMTQXyRxUISo1/Ud0k+JbnAQG0rRQYSPCUwsQbu+Ah/EVhd1zRzoZllnOSG9NqnCLi//GB7QdO3b8uaKiQmoyIhEG/19UatbnzTFr+s4y65/eYEYYWk9i80qM3qaA/cwp7TpK4u/cbG4G/UEzwJce4jEDjHVn9YePU7ip7xKu74DEesJNYfz2uy/1hvm8PHNo5dxZxnJCrEPqCgYYKk+XkHrRsiXAHp9jnOGNn2w2b8p5yPyf8U+ynMOVtV+lTZeqrZKb5ekMwSfwqH1mo1l+zjtmQ593zcbFxQI4BRIeQmcwsMoLw1sYjk8GQLMTyXcBj7rQhMpE1XZeyCCVTw+A7Zw0mM8Vov67H0GfUUgji8HCWKqSbzIy5cuREn+3c7mZk1t8XG4XHIz6ZmPQkeiIlmjW6rssUjwgcX2TbDY/6L4ENJGgJfKMIq+DnpH8ElnOpepzNtUl9C4vsim2VVj2uvc3oZF24PiHqRApXnFw/QcUrGRUSIl4lsPgZKF3SlA7bhG0Z/Ph7ZEF2zOD1OosFROLkbkZtkgkzL8XL16s9tMcWNqRvzUx7SNn2O8XrVOnTiWM5taekTYHer2yxYPrYXO5S58hghx9kxD5inEyppcgsqKCa/4YO7ArBbUE55IOH72/Ih/3Imm/OlvtMiqOrU9pHI3z6gAWvLIUn763FvOfXoreF3fFd39yqZI3BzROBqDqz94L1U6NLN03Kx/6E1/DeKsEWocYuH7VlzG4usDVjQtTuSlDMMtwRWBEvH8/+uij/1i9erXw4WanbwDj4cshKS/xemOGMPy8g6OcfbaKkXV9vne2w3iOy6V3BBAelADvw/1g6xEP0ytjgyOfWVtE1odvwgm+S5lCQJZvq8SPL/gDHCEH4jt48NNXbkOXgbmiHBxQHxmohT/ah6JARBhLytzMqAUSyHm1D2YnLgS6i0vrrulEJDFHE+VJPGBSls7Qe58xwCU1IoX2o/GfA+qVL8eEMEYfy6IbZxJHya0xnpjODHGu2JMIdwmKZe72IfL+Lki0N62AS68vTYd9PCNRM0SQdFEtsjmkKafuhrRb/hmiF1sYn0P8l7m9s5CWk6Io/2AwUUSRbQrSGIVnKTnKmyUMUMZTk7jEznF9B9jHtIc9g8FZ2CVh0SK0SFUaAzbvYaj0fzAO8At9+vShgdnydEwIa6rGvn79eoafSvsjGzKREUpNvpS5RMcCZQGby5HXOGU7bE9uYjg8RqW+iCtx/3geHFnWSl7pkLKjZAQeT0ta3u8DnrB0Q6rdHEpqbxh/VW1TnOPQhoVpw0VKQ6j9zQq4V4iSR/Z/Xw84bmGsK9k2RUQKCYq8qqupMXngjsbBPY1I++Ujjzyyc/r06QKiY0qHtqb5xciz0i/hyRczrOw9DHs+mmFlE72xsYrixGkrjdcL6xB6eTuwkCGFwgG4GBfKMZZh8boxYik5pbCVlp5S1PxmHmtOdo0DydIIJK4bk+wh285Io3N38YCEQiovHkRGJ8Lzg+6wdaJZI0iSbPRt+nyNcuRHA2P8fkQW+HivXr0+P9aW7P/c8SDsgHJ4amtcu3btBjGW7QNUk8eS2pxEnliHatSaFMhhhlwI8iSIEI+C8sZwJe+VqYib1AtGEmMV2mT/VttKShvgTk7SE2xcAu5/jpxifjV8tQ1wX9MBju91hJOxFWVvmzUHx8lV61wWygHMorx6mVr1J4MHD+aSZWtwt60ekp54OJqDoWa/z8PSduwsLg5Ro+S5Jlb48ADtGzlLJbS+yqya+LHZ0I+Hrg2Yaza+sd0MV/is0Ohi05Dni2Ukr5OZ9tVpXRlst7Sr8Y1tZuXZM8z6/vPMmtuWmMEN1eqoYUOdDcOg7rQHGafeKC7e6We/C3lc8fV33nmnBGs84WPwhBcYHUE8RCaLp0TcQJvtFvLvfnI8osw3iW0ms8E65VtkJbe6vlWECA8gsPfgSB3HKNyMwWtP5HZV0cTIkkQctHZSMkw4INslABG2ZnBOLMBQ7uYsHnq6oR62YTxqZHwunENpe6rAmRboyO5AcSBnjK1lkycTYTOGDBnC2Dutk1oNYWyulK3KZ0zAR6kdPSLRTNtlZkmcRyYJ6UpGQi99kKFgG3/5OVy7yf+znXD/kYeunZtJpIU57SEOr9ZsprSFifI2RJVJdlrqPC/Tz/Z4CsgGc+yIfWIg7EPakbuL31R0XA45ztnw1Cbxkmg8L/O3PATucSmFL8VJpcjWSEqWtkbBTWVKB9CjR49l/fvzCAXTjKuvq0nkuQkJPEGHvlZG6KRh5ujAHSfju9AjTDutkCbBs9ugb2JQMFKaPZ3hbjg9ogJ6SWFCCaJSHyMSpUH7o9+iLtKWjwd4c0ba/6e1iPx1E9tEo/8uxk/849mwdxXHtyj/RGYogMb6RpPnq5TS/pxGLjJp1qxZb8+ZM0c0P9VfaWZrpf3b3lp1SLmqnqeeeso1bty4PjS2f8aReTU760lJFgctwUF+Qg8gbTg/IssqEJy8GY46juSB3OPFI3+d/RnKlaXopEoXoXzMrFIhvKmrYvjyu762EgEqFK5PfAim0lE8qTfPhkllcGevFd2U2UWW0v8n56nUsv1TyTFefumll76gzD4piGpq8QGDLXqvtT8V8jZv3tyTUzZ/oQy4kLMACXR10c1nV2zSTlZoVEbgf5qj/f0aaNXcanQt9ydP7Ak7PRASSOWYT+sThBFL1H4Q2UnV+9Ut0N4q5bQHo+6MSob7/r6wpUrQaWF93KRO1ieaHxWJWmrAn/LQuvupom8mkKQfrU5RByNDAe/gmyfpu/bmm296eDLCCI7WGykHJjAeviOO827WTkjFrHjSAnf6z95FH2UhNC8dw2PbwXNdZ+XuUo0XkJH0RK4cKVHfJBtlDhZp8C2yjebFW1thvsdN7vWMEfz9jjwWiwOid4qFTBYlCK1vqKdHPximY2CqGL5Lly5dPGHCBBVB8Uh1fdvvC5TViyN3Ag+L20Q/Jac/QkqjlzedfiA5xzlSHTSr71tqhlI5lZM31/T/jcccyu8yISLTI+oJ3jgoWXnkZ11lqfvXerO+3yyzMXeeWXfPMtOo4TQIn983xcKjFYNBk6aJSaWigNNJ3422senzlOLkyMPyFDRrxYoVMTzI4HtE2E/IfnqRZbrdPC5YotiID4FARXAlI769kc+wDTwRlictuG+lO4hH1dt4tgkZ2WFbHShvoJeFe6BfJVXtoRF8TgocN4mKnklPC8sl9UnMRSJKnLM+yqmvKacmL1y4cMrEiRNlOXKbSYfv4SluHjWwHCLtfDbjcZJFt+TUZJubm9aVbsgWG/WMrr2uiofSUP6sreM0BjeVX98Fbh5VH2FsDUGcKOAanbm+2TzD8vVC2POpzJydAM9dlIP9iTDOHgibFDEUDAVRXVXN46G1Etb7U3pollOuinP2pMuoUwz646peGzt2rJvC/s8FBQVF9FfqwiqFdcmcbZhsUmaLfTMKzNrLF5JNzjbrr/vIDH2yhwev1Zn+lWVm7YTFnOmda9Zdxt9n5TfNRJNnCgflTLaUV11dFWb5O3gGyqN5eXkMTHUEMj2urpy4h1vbDjuulnIdSYSscdF55503l/HddxPAA6igeHnQDNV60hGVDXufRNhH08jOjkVkbQ30F7dAn8Opnf8UkIqo+d3LycOHe8M1gIfhkKBkWaEeDtGLXieH1ZQGAsH/o8Lzi+eff34Wvej6cTX4JDzcJlniEfptIwKzk5OTF/DE8t4yI5CcwvkqMaRULyjlqIIHuSnC4GSi1iMO7nMyZc02NUgiinkkm9hSdMiCA+Hr4qqq0Wd1717SVN9pwf5OJ4QJXFV7yb6GktJ+JL5KyhsBPk9dpw0nhjezyEm1BsNm29QqKK7QooreaE13BPjcNOZ9Pjs7+xOWJ7bDaZVON4RFgavJdA6P25UD6MbRwTyKjmXNG+u1O2lUqwWftI11LnZpbKg3fI0+k8hdQCP97/n5+StHjBghs46nBUVFOxz9PF0RFm2/ja4h17333juWyLiBCkkvIi+FOoWDU/ONpCQ/J1W30uh9k1rfdD4kbqTTjqqinf22fWpyRidlVH+eMXkuF2h2Xb58eQY7KSJM0uk+OK1efMveD0bKwd+/Zd09050zEDgDgTMQOAOBMxA4A4EzEDgDgTMQUBCYN2+ebNk8k9o+BJSJ8v8BwPeIWg2zcKkAAAAASUVORK5CYII=;" parent="1" vertex="1">
          <mxGeometry x="203.88" y="260" width="48" height="48" as="geometry" />
        </mxCell>
        <mxCell id="HVFixg9VzNJbL1LoGBnK-21" value="&lt;font style=&quot;font-size: 8px;&quot;&gt;Proxy Service&lt;/font&gt;" style="text;strokeColor=none;align=center;fillColor=none;html=1;verticalAlign=middle;whiteSpace=wrap;rounded=0;" parent="1" vertex="1">
          <mxGeometry x="197.89" y="300" width="60" height="20" as="geometry" />
        </mxCell>
      </root>
    </mxGraphModel>
  </diagram>
</mxfile>
